<?xml version="1.0" encoding="UTF-8" standalone="no"?>
<!-- Created with Inkscape (http://www.inkscape.org/) -->

<svg
   sodipodi:docname="examples.svg"
   id="svg2197"
   version="1.1"
   viewBox="0 0 210 297"
   height="297mm"
   width="210mm"
   inkscape:version="1.2.2 (b0a8486541, 2022-12-01)"
   xmlns:inkscape="http://www.inkscape.org/namespaces/inkscape"
   xmlns:sodipodi="http://sodipodi.sourceforge.net/DTD/sodipodi-0.dtd"
   xmlns="http://www.w3.org/2000/svg"
   xmlns:svg="http://www.w3.org/2000/svg">
  <sodipodi:namedview
     id="namedview2199"
     pagecolor="#ffffff"
     bordercolor="#000000"
     borderopacity="0.25"
     inkscape:showpageshadow="2"
     inkscape:pageopacity="0.0"
     inkscape:pagecheckerboard="0"
     inkscape:deskcolor="#d1d1d1"
     inkscape:document-units="mm"
     showgrid="false"
     inkscape:zoom="2.160393"
     inkscape:cx="92.34431"
     inkscape:cy="199.03786"
     inkscape:window-width="1920"
     inkscape:window-height="1011"
     inkscape:window-x="1920"
     inkscape:window-y="32"
     inkscape:window-maximized="1"
     inkscape:current-layer="layer1" />
  <defs
     id="defs2194" />
  <g
     inkscape:label="Layer 1"
     inkscape:groupmode="layer"
     id="layer1">
    <rect
       style="fill:#f9f9f9;fill-opacity:1;stroke:#050505;stroke-width:0.5;stroke-dasharray:none;stroke-opacity:1"
       id="rect5694"
       width="92.343102"
       height="20.091715"
       x="3.7922881"
       y="4.4637704"
       inkscape:export-filename="rect5694.png"
       inkscape:export-xdpi="96"
       inkscape:export-ydpi="96" />
    <rect
       style="fill:#f9f9f9;fill-opacity:1;stroke:#050505;stroke-width:0.5;stroke-dasharray:none;stroke-opacity:1"
       id="rect5694-3"
       width="92.343102"
       height="20.091715"
       x="3.7922878"
       y="30.922112"
       inkscape:export-filename="rect5694.png"
       inkscape:export-xdpi="96"
       inkscape:export-ydpi="96" />
    <rect
       style="fill:#f9f9f9;fill-opacity:1;stroke:#050505;stroke-width:0.5;stroke-dasharray:none;stroke-opacity:1"
       id="rect5694-3-6"
       width="92.343102"
       height="20.091715"
       x="3.7922878"
       y="57.38047"
       inkscape:export-filename="rect5694.png"
       inkscape:export-xdpi="96"
       inkscape:export-ydpi="96" />
    <path
       style="fill:none;stroke:#050505;stroke-width:0.2;stroke-dasharray:none"
       d="M 18.1005 19.0708 C 18.1005 19.0708 19.0248 19.0163 20.6509 19.0163 C 21.37 19.0163 22.2263 18.9621 23.2006 18.9621 C 23.9785 18.9621 24.8315 19.1872 25.75 19.1872 C 26.5519 19.1872 27.4037 19.1408 28.2988 19.1408 C 29.1142 19.1408 29.9656 19.2179 30.8479 19.2179 C 31.6722 19.2179 32.5235 18.9922 33.3979 18.9922 C 34.2284 18.9922 35.0796 19.029 35.9482 19.029 C 36.7832 19.029 37.6342 19.0053 38.4982 19.0053 C 39.337 19.0053 40.1881 19.0639 41.0486 19.0639 C 41.8904 19.0639 42.7413 19.1488 43.5986 19.1488 C 44.4429 19.1488 45.2935 18.9513 46.1478 18.9513 C 46.9948 18.9513 47.8455 19.0316 48.6974 19.0316 C 49.5465 19.0316 50.3968 19.1494 51.246 19.1494 C 52.0978 19.1494 52.9484 18.9459 53.7954 18.9459 C 54.6496 18.9459 55.5 19.0476 56.3443 19.0476 C 57.2014 19.0476 58.0522 19.0543 58.8939 19.0543 C 59.7543 19.0543 60.6052 19.1173 61.4439 19.1173 C 62.3075 19.1173 63.1582 19.0533 63.9928 19.0533 C 64.8611 19.0533 65.712 19.1219 66.5421 19.1219 C 67.4167 19.1219 68.2681 18.9303 69.0925 18.9303 C 69.9751 18.9303 70.8267 19.1346 71.6423 19.1346 C 72.5377 19.1346 73.3898 19.2024 74.192 19.2024 C 75.1109 19.2024 75.9643 18.9299 76.7424 18.9299 C 77.7163 18.9299 78.5723 19.2118 79.2911 19.2118 C 80.9164 19.2118 81.8403 18.9694 81.8403 18.9694 C 81.8403 18.9694 81.8603 18.1361 81.8603 16.9902 C 81.8603 16.3209 81.8374 15.5796 81.8374 14.9102 C 81.8374 13.764 81.8024 12.829 81.8024 12.829 C 81.8024 12.829 80.9255 13.0164 79.2994 13.1757 C 78.5803 13.2461 77.7029 13.1145 76.7286 13.2099 C 75.9508 13.2861 75.1128 13.5236 74.1944 13.6136 C 73.3924 13.6921 72.5494 13.8658 71.6543 13.9535 C 70.8389 14.0333 69.9633 13.8687 69.0809 13.9552 C 68.2567 14.0359 67.4053 14.1183 66.5309 14.2039 C 65.7004 14.2852 64.8628 14.508 63.9942 14.5931 C 63.1592 14.6748 62.2928 14.6011 61.4289 14.6857 C 60.59 14.7679 59.7401 14.8624 58.8796 14.9467 C 58.0377 15.0291 57.2064 15.3126 56.3491 15.3966 C 55.5048 15.4792 54.6569 15.5895 53.8026 15.6732 C 52.9556 15.7561 52.0946 15.7343 51.2427 15.8177 C 50.3936 15.9009 49.5298 15.8466 48.6807 15.9297 C 47.8288 16.0132 46.9961 16.2795 46.1492 16.3624 C 45.295 16.4461 44.43 16.3808 43.5857 16.4635 C 42.7286 16.5474 41.8763 16.6159 41.0346 16.6983 C 40.1743 16.7826 39.3215 16.8467 38.4828 16.9288 C 37.6191 17.0134 36.7914 17.3309 35.9568 17.4126 C 35.0885 17.4976 34.2154 17.3538 33.3852 17.4351 C 32.5107 17.5207 31.6739 17.7536 30.8495 17.8344 C 29.9669 17.9208 29.1106 17.9562 28.295 18.0361 C 27.3996 18.1238 26.5526 18.2594 25.7504 18.338 C 24.8315 18.428 23.9743 18.4727 23.1962 18.5489 C 22.2223 18.6443 21.3583 18.6464 20.6395 18.7168 C 19.0142 18.876 18.1005 19.0708 18.1005 19.0708"
       id="path2372" />
    <text
       xml:space="preserve"
       style="font-size:5.64444px;font-family:'Humor Sans';-inkscape-font-specification:'Humor Sans';fill:#000000;fill-opacity:1;stroke:none;stroke-width:1.29189"
       x="17.379894"
       y="22.43265"
       id="text2428"><tspan
         sodipodi:role="line"
         id="tspan2426"
         style="font-size:5.64444px;fill:#000000;fill-opacity:1;stroke:none;stroke-width:1.29189"
         x="17.379894"
         y="22.43265">-</tspan></text>
    <text
       xml:space="preserve"
       style="font-size:5.64444px;font-family:'Humor Sans';-inkscape-font-specification:'Humor Sans';fill:#000000;fill-opacity:1;stroke:none;stroke-width:1.44307"
       x="80.333046"
       y="22.553917"
       id="text2428-3"><tspan
         sodipodi:role="line"
         id="tspan2426-2"
         style="font-size:5.64444px;fill:#000000;fill-opacity:1;stroke:none;stroke-width:1.44308"
         x="80.333046"
         y="22.553917">+</tspan></text>
    <text
       xml:space="preserve"
       style="font-size:3.175px;font-family:'Humor Sans';-inkscape-font-specification:'Humor Sans';fill:#000000;fill-opacity:1;stroke:none;stroke-width:0.499999"
       x="45.837738"
       y="22.030952"
       id="text3122"><tspan
         sodipodi:role="line"
         id="tspan3120"
         style="fill:#000000;fill-opacity:1;stroke:none;stroke-width:0.5"
         x="45.837738"
         y="22.030952">scale</tspan></text>
    <path
       style="fill:none;fill-opacity:1;stroke:#050505;stroke-width:0.799999;stroke-dasharray:none;stroke-opacity:1"
       d="m 119.60845,31.355311 h 25.29328"
       id="path4193-9" />
    <path
       style="fill:none;fill-opacity:1;stroke:#050505;stroke-width:0.799999;stroke-dasharray:none;stroke-opacity:1"
       d="M 68.742 9.43685 C 68.742 9.43685 69.7117 10.9548 71.2713 10.9548 C 71.9989 10.9548 72.855 10.461 73.8008 10.461 C 74.5892 10.461 75.4401 8.04107 76.331 8.04107 C 77.1464 8.04107 77.9953 10.9144 78.8606 10.9144 C 79.6936 10.9144 80.5419 7.97172 81.3901 7.97172 C 82.2383 7.97172 83.0866 10.7335 83.9195 10.7335 C 84.7845 10.7335 85.6329 7.84631 86.4478 7.84631 C 87.3381 7.84631 88.1884 9.30221 88.9762 9.30221 C 89.9221 9.30221 90.7782 7.90952 91.5058 7.90952 C 93.0655 7.90952 94.0353 9.43685 94.0353 9.43685"
       id="path4193-9-2" />
    <path
       style="fill:none;fill-opacity:1;stroke:#050505;stroke-width:0.799999;stroke-dasharray:none;stroke-opacity:1"
       d="M 68.742 62.3365 C 68.742 62.3365 69.7117 62.8309 71.2713 62.8309 C 71.9989 62.8309 72.855 61.7873 73.8008 61.7873 C 74.5892 61.7873 75.4401 61.8572 76.331 61.8572 C 77.1464 61.8572 77.9953 62.6256 78.8606 62.6256 C 79.6936 62.6256 80.5419 62.0718 81.3901 62.0718 C 82.2384 62.0718 83.0866 62.3278 83.9195 62.3278 C 84.7845 62.3278 85.6329 61.7817 86.4478 61.7817 C 87.3381 61.7817 88.1884 62.621 88.9762 62.621 C 89.9221 62.621 90.7782 62.9211 91.5058 62.9211 C 93.0655 62.9211 94.0353 62.3365 94.0353 62.3365"
       id="path4193-9-6" />
    <path
       style="fill:none;fill-opacity:1;stroke:#050505;stroke-width:0.799999;stroke-dasharray:none;stroke-opacity:1"
       d="M 68.742 35.8918 C 68.742 35.8918 69.7117 36.2457 71.2713 36.2457 C 71.9989 36.2457 72.855 36.3287 73.8008 36.3287 C 74.5892 36.3287 75.4401 35.5081 76.331 35.5081 C 77.1464 35.5081 77.9953 35.297 78.8606 35.297 C 79.6936 35.297 80.5419 35.5232 81.3901 35.5232 C 82.2383 35.5232 83.0866 36.0777 83.9195 36.0777 C 84.7845 36.0777 85.6329 36.4914 86.4478 36.4914 C 87.3381 36.4914 88.1884 35.875 88.9762 35.875 C 89.9221 35.875 90.7782 35.541 91.5058 35.541 C 93.0655 35.541 94.0353 35.8918 94.0353 35.8918"
       id="path4193-9-8" />
    <path
       style="fill:none;fill-opacity:1;stroke:#050505;stroke-width:0.799999;stroke-dasharray:none;stroke-opacity:1"
       d="M 5.94059 35.8918 C 5.94059 35.8918 6.91028 36.461 8.46993 36.461 C 9.19755 36.461 10.0536 36.2759 10.9994 36.2759 C 11.7879 36.2759 12.6387 35.3684 13.5296 35.3684 C 14.345 35.3684 15.1939 36.4459 16.0592 36.4459 C 16.8922 36.4459 17.7405 35.3424 18.5887 35.3424 C 19.437 35.3424 20.2852 36.378 21.1181 36.378 C 21.9831 36.378 22.8315 35.2953 23.6464 35.2953 C 24.5367 35.2953 25.387 35.8413 26.1749 35.8413 C 27.1207 35.8413 27.9768 35.319 28.7044 35.319 C 30.2641 35.319 31.2339 35.8918 31.2339 35.8918"
       id="path4193-9-8-6" />
    <path
       style="fill:none;fill-opacity:1;stroke:#050505;stroke-width:0.799999;stroke-dasharray:none;stroke-opacity:1"
       d="m 5.94059,9.450505 c 0,0 0.96969,0.5692 2.52934,0.5692 0.72762,0 1.58367,-0.1851 2.52947,-0.1851 0.7885,0 1.6393,-0.9075 2.5302,-0.9075 0.8154,0 1.6643,1.0775 2.5296,1.0775 0.833,0 1.6813,-1.1035 2.5295,-1.1035 0.8483,0 1.6965,1.0356 2.5294,1.0356 0.865,0 1.7134,-1.0827 2.5283,-1.0827 0.8903,0 1.7406,0.546 2.5285,0.546 0.9458,0 1.8019,-0.5223 2.5295,-0.5223 1.5597,0 2.5295,0.5728 2.5295,0.5728"
       id="path4193-9-8-6-89" />
    <path
       style="fill:none;stroke:#050505;stroke-width:0.2;stroke-dasharray:none"
       d="m 18.1005,45.52915 c 0,0 0.9243,-0.0545 2.5504,-0.0545 0.7191,0 1.5754,-0.0542 2.5497,-0.0542 0.7779,0 1.6309,0.2251 2.5494,0.2251 0.8019,0 1.6537,-0.0464 2.5488,-0.0464 0.8154,0 1.6668,0.0771 2.5491,0.0771 0.8243,0 1.6756,-0.2257 2.55,-0.2257 0.8305,0 1.6817,0.0368 2.5503,0.0368 0.835,0 1.686,-0.0237 2.55,-0.0237 0.8388,0 1.6899,0.0586 2.5504,0.0586 0.8418,0 1.6927,0.0849 2.55,0.0849 0.8443,0 1.6949,-0.1975 2.5492,-0.1975 0.847,0 1.6977,0.0803 2.5496,0.0803 0.8491,0 1.6994,0.1178 2.5486,0.1178 0.8518,0 1.7024,-0.2035 2.5494,-0.2035 0.8542,0 1.7046,0.1017 2.5489,0.1017 0.8571,0 1.7079,0.0067 2.5496,0.0067 0.8604,0 1.7113,0.063 2.55,0.063 0.8636,0 1.7143,-0.064 2.5489,-0.064 0.8683,0 1.7192,0.0686 2.5493,0.0686 0.8746,0 1.726,-0.1916 2.5504,-0.1916 0.8826,0 1.7342,0.2043 2.5498,0.2043 0.8954,0 1.7475,0.0678 2.5497,0.0678 0.9189,0 1.7723,-0.2725 2.5504,-0.2725 0.9739,0 1.8299,0.2819 2.5487,0.2819 1.6253,0 2.5492,-0.2424 2.5492,-0.2424 0,0 0.02,-0.8333 0.02,-1.9792 0,-0.6693 -0.0229,-1.4106 -0.0229,-2.08 0,-1.1462 -0.035,-2.0812 -0.035,-2.0812 0,0 -0.8769,0.1874 -2.503,0.3467 -0.7191,0.0704 -1.5965,-0.0612 -2.5708,0.0342 -0.7778,0.0762 -1.6158,0.3137 -2.5342,0.4037 -0.802,0.0785 -1.645,0.2522 -2.5401,0.3399 -0.8154,0.0798 -1.691,-0.0848 -2.5734,0.0017 -0.8242,0.0807 -1.6756,0.1631 -2.55,0.2487 -0.8305,0.0813 -1.6681,0.3041 -2.5367,0.3892 -0.835,0.0817 -1.7014,0.008 -2.5653,0.0926 -0.8389,0.0822 -1.6888,0.1767 -2.5493,0.261 -0.8419,0.0824 -1.6732,0.3659 -2.5305,0.4499 -0.8443,0.0826 -1.6922,0.1929 -2.5465,0.2766 -0.847,0.0829 -1.708,0.0611 -2.5599,0.1445 -0.8491,0.0832 -1.7129,0.0289 -2.562,0.112 -0.8519,0.0835 -1.6846,0.3498 -2.5315,0.4327 -0.8542,0.0837 -1.7192,0.0184 -2.5635,0.1011 -0.8571,0.0839 -1.7094,0.1524 -2.5511,0.2348 -0.8603,0.0843 -1.7131,0.1484 -2.5518,0.2305 -0.8637,0.0846 -1.6914,0.4021 -2.526,0.4838 -0.8683,0.085 -1.7414,-0.0588 -2.5716,0.0225 -0.8745,0.0856 -1.7113,0.3185 -2.5357,0.3993 -0.8826,0.0864 -1.7389,0.1218 -2.5545,0.2017 -0.8954,0.0877 -1.7424,0.2233 -2.5446,0.3019 -0.9189,0.09 -1.7761,0.1347 -2.5542,0.2109 -0.9739,0.0954 -1.8379,0.0975 -2.5567,0.1679 -1.6253,0.1592 -2.539,0.354 -2.539,0.354"
       id="path2372-2" />
    <text
       xml:space="preserve"
       style="font-size:5.64444px;font-family:'Humor Sans';-inkscape-font-specification:'Humor Sans';fill:#000000;fill-opacity:1;stroke:none;stroke-width:1.29189"
       x="17.379894"
       y="48.891006"
       id="text2428-5"><tspan
         sodipodi:role="line"
         id="tspan2426-4"
         style="font-size:5.64444px;fill:#000000;fill-opacity:1;stroke:none;stroke-width:1.29189"
         x="17.379894"
         y="48.891006">-</tspan></text>
    <text
       xml:space="preserve"
       style="font-size:5.64444px;font-family:'Humor Sans';-inkscape-font-specification:'Humor Sans';fill:#000000;fill-opacity:1;stroke:none;stroke-width:1.44307"
       x="80.333046"
       y="49.012276"
       id="text2428-3-7"><tspan
         sodipodi:role="line"
         id="tspan2426-2-4"
         style="font-size:5.64444px;fill:#000000;fill-opacity:1;stroke:none;stroke-width:1.44308"
         x="80.333046"
         y="49.012276">+</tspan></text>
    <text
       xml:space="preserve"
       style="font-size:3.175px;font-family:'Humor Sans';-inkscape-font-specification:'Humor Sans';fill:#000000;fill-opacity:1;stroke:none;stroke-width:0.499999"
       x="44.510689"
       y="48.489311"
       id="text3122-4"><tspan
         sodipodi:role="line"
         id="tspan3120-3"
         style="fill:#000000;fill-opacity:1;stroke:none;stroke-width:0.5"
         x="44.510689"
         y="48.489311">length</tspan></text>
    <path
       style="fill:none;fill-opacity:1;stroke:#050505;stroke-width:0.799999;stroke-dasharray:none;stroke-opacity:1"
       d="m 5.94059,62.350149 c 0,0 0.96969,0.5692 2.52934,0.5692 0.72762,0 1.58367,-0.1851 2.52947,-0.1851 0.7885,0 1.6393,-0.9075 2.5302,-0.9075 0.8154,0 1.6643,1.0775 2.5296,1.0775 0.833,0 1.6813,-1.1035 2.5295,-1.1035 0.8483,0 1.6965,1.0356 2.5294,1.0356 0.865,0 1.7134,-1.0827 2.5283,-1.0827 0.8903,0 1.7406,0.546 2.5285,0.546 0.9458,0 1.8019,-0.5223 2.5295,-0.5223 1.5597,0 2.5295,0.5728 2.5295,0.5728"
       id="path4193-9-8-6-8" />
    <path
       style="fill:none;stroke:#050505;stroke-width:0.2;stroke-dasharray:none"
       d="m 18.1005,71.987499 c 0,0 0.9243,-0.0545 2.5504,-0.0545 0.7191,0 1.5754,-0.0542 2.5497,-0.0542 0.7779,0 1.6309,0.2251 2.5494,0.2251 0.8019,0 1.6537,-0.0464 2.5488,-0.0464 0.8154,0 1.6668,0.0771 2.5491,0.0771 0.8243,0 1.6756,-0.2257 2.55,-0.2257 0.8305,0 1.6817,0.0368 2.5503,0.0368 0.835,0 1.686,-0.0237 2.55,-0.0237 0.8388,0 1.6899,0.0586 2.5504,0.0586 0.8418,0 1.6927,0.0849 2.55,0.0849 0.8443,0 1.6949,-0.1975 2.5492,-0.1975 0.847,0 1.6977,0.0803 2.5496,0.0803 0.8491,0 1.6994,0.1178 2.5486,0.1178 0.8518,0 1.7024,-0.2035 2.5494,-0.2035 0.8542,0 1.7046,0.1017 2.5489,0.1017 0.8571,0 1.7079,0.0067 2.5496,0.0067 0.8604,0 1.7113,0.063 2.55,0.063 0.8636,0 1.7143,-0.064 2.5489,-0.064 0.8683,0 1.7192,0.0686 2.5493,0.0686 0.8746,0 1.726,-0.1916 2.5504,-0.1916 0.8826,0 1.7342,0.2043 2.5498,0.2043 0.8954,0 1.7475,0.0678 2.5497,0.0678 0.9189,0 1.7723,-0.2725 2.5504,-0.2725 0.9739,0 1.8299,0.2819 2.5487,0.2819 1.6253,0 2.5492,-0.2424 2.5492,-0.2424 0,0 0.02,-0.8333 0.02,-1.9792 0,-0.6693 -0.0229,-1.4106 -0.0229,-2.08 0,-1.1462 -0.035,-2.0812 -0.035,-2.0812 0,0 -0.8769,0.1874 -2.503,0.3467 -0.7191,0.0704 -1.5965,-0.0612 -2.5708,0.0342 -0.7778,0.0762 -1.6158,0.3137 -2.5342,0.4037 -0.802,0.0785 -1.645,0.2522 -2.5401,0.3399 -0.8154,0.0798 -1.691,-0.0848 -2.5734,0.0017 -0.8242,0.0807 -1.6756,0.1631 -2.55,0.2487 -0.8305,0.0813 -1.6681,0.3041 -2.5367,0.3892 -0.835,0.0817 -1.7014,0.008 -2.5653,0.0926 -0.8389,0.0822 -1.6888,0.1767 -2.5493,0.261 -0.8419,0.0824 -1.6732,0.3659 -2.5305,0.4499 -0.8443,0.0826 -1.6922,0.1929 -2.5465,0.2766 -0.847,0.0829 -1.708,0.0611 -2.5599,0.1445 -0.8491,0.0832 -1.7129,0.0289 -2.562,0.112 -0.8519,0.0835 -1.6846,0.3498 -2.5315,0.4327 -0.8542,0.0837 -1.7192,0.0184 -2.5635,0.1011 -0.8571,0.0839 -1.7094,0.1524 -2.5511,0.2348 -0.8603,0.0843 -1.7131,0.1484 -2.5518,0.2305 -0.8637,0.0846 -1.6914,0.4021 -2.526,0.4838 -0.8683,0.085 -1.7414,-0.0588 -2.5716,0.0225 -0.8745,0.0856 -1.7113,0.3185 -2.5357,0.3993 -0.8826,0.0864 -1.7389,0.1218 -2.5545,0.2017 -0.8954,0.0877 -1.7424,0.2233 -2.5446,0.3019 -0.9189,0.09 -1.7761,0.1347 -2.5542,0.2109 -0.9739,0.0954 -1.8379,0.0975 -2.5567,0.1679 -1.6253,0.1592 -2.539,0.354 -2.539,0.354"
       id="path2372-2-4" />
    <text
       xml:space="preserve"
       style="font-size:5.64444px;font-family:'Humor Sans';-inkscape-font-specification:'Humor Sans';fill:#000000;fill-opacity:1;stroke:none;stroke-width:1.29189"
       x="17.379894"
       y="75.349365"
       id="text2428-5-3"><tspan
         sodipodi:role="line"
         id="tspan2426-4-1"
         style="font-size:5.64444px;fill:#000000;fill-opacity:1;stroke:none;stroke-width:1.29189"
         x="17.379894"
         y="75.349365">-</tspan></text>
    <text
       xml:space="preserve"
       style="font-size:5.64444px;font-family:'Humor Sans';-inkscape-font-specification:'Humor Sans';fill:#000000;fill-opacity:1;stroke:none;stroke-width:1.44307"
       x="80.333046"
       y="75.470634"
       id="text2428-3-7-4"><tspan
         sodipodi:role="line"
         id="tspan2426-2-4-9"
         style="font-size:5.64444px;fill:#000000;fill-opacity:1;stroke:none;stroke-width:1.44308"
         x="80.333046"
         y="75.470634">+</tspan></text>
    <text
       xml:space="preserve"
       style="font-size:3.175px;font-family:'Humor Sans';-inkscape-font-specification:'Humor Sans';fill:#000000;fill-opacity:1;stroke:none;stroke-width:0.499999"
       x="40.830292"
       y="74.94767"
       id="text3122-4-2"><tspan
         sodipodi:role="line"
         id="tspan3120-3-0"
         style="fill:#000000;fill-opacity:1;stroke:none;stroke-width:0.5"
         x="40.830292"
         y="74.94767">randomness</tspan></text>
  </g>
</svg>
