<?xml version="1.0" encoding="UTF-8" standalone="no"?>
<!-- Created with Inkscape (http://www.inkscape.org/) -->

<svg
   width="210mm"
   height="297mm"
   viewBox="0 0 210 297"
   version="1.1"
   id="svg1"
   xml:space="preserve"
   inkscape:version="1.4 (e7c3feb100, 2024-10-09)"
   sodipodi:docname="icon.svg"
   xmlns:inkscape="http://www.inkscape.org/namespaces/inkscape"
   xmlns:sodipodi="http://sodipodi.sourceforge.net/DTD/sodipodi-0.dtd"
   xmlns="http://www.w3.org/2000/svg"
   xmlns:svg="http://www.w3.org/2000/svg"><sodipodi:namedview
     id="namedview1"
     pagecolor="#ffffff"
     bordercolor="#000000"
     borderopacity="0.25"
     inkscape:showpageshadow="2"
     inkscape:pageopacity="0.0"
     inkscape:pagecheckerboard="0"
     inkscape:deskcolor="#d1d1d1"
     inkscape:document-units="mm"
     inkscape:zoom="2.9041807"
     inkscape:cx="228.63591"
     inkscape:cy="311.10323"
     inkscape:window-width="1920"
     inkscape:window-height="1011"
     inkscape:window-x="0"
     inkscape:window-y="32"
     inkscape:window-maximized="1"
     inkscape:current-layer="layer1" /><defs
     id="defs1" /><g
     inkscape:label="Layer 1"
     inkscape:groupmode="layer"
     id="layer1"><rect
       style="fill:#e8e8e8;stroke-width:0.499999;stroke-linecap:round;fill-opacity:1"
       id="rect1"
       width="21.136196"
       height="20.77178"
       x="51.747242"
       y="71.425766" /><g
       id="g7"
       transform="matrix(0.43227391,0,0,0.43227391,41.827478,47.827982)"><path
         style="fill:none;fill-opacity:1;stroke:#000000;stroke-width:0.499999;stroke-linecap:round;stroke-opacity:1"
         d="M 27.4887 70.1083 C 27.4887 70.1083 27.5308 70.9323 27.772 72.0176 C 27.8979 72.5841 27.9417 73.2588 28.2477 73.8818 C 28.5202 74.4366 29.0425 74.9003 29.5167 75.377 C 29.9455 75.8079 30.3582 76.2908 30.9949 76.5679 C 31.5323 76.8017 32.1734 76.9784 32.8859 77.0463 C 33.4648 77.1015 34.1253 77.117 34.8345 77.0318 C 35.5593 76.9448 36.0898 76.5408 36.4873 76.112 C 36.8935 75.6739 37.1736 75.1174 37.3202 74.4568 C 37.4493 73.8754 37.422 73.222 37.4105 72.5671 C 37.3994 71.9392 37.4598 71.298 37.3704 70.6858 C 37.2726 70.0156 36.9813 69.4033 36.8522 68.8543 C 36.5987 67.776 36.4431 67.0162 36.4431 67.0162"
         id="path1"
         sodipodi:nodetypes="csc" /><path
         style="fill:none;fill-opacity:1;stroke:#000000;stroke-width:0.499999;stroke-linecap:round;stroke-opacity:1"
         d="M 25.8137 70.366 C 25.8137 70.366 26.4899 70.0859 27.5458 69.7358 C 28.0562 69.5666 28.6936 69.4965 29.3363 69.2834 C 29.8919 69.0992 30.4321 68.7498 31.0347 68.55 C 31.6137 68.358 32.1977 68.1455 32.7767 67.9535 C 33.3793 67.7537 34.0253 67.7234 34.5808 67.5392 C 35.2232 67.3262 35.766 66.9719 36.2762 66.8028 C 37.3325 66.4525 38.0536 66.3075 38.0536 66.3075"
         id="path2" /><path
         style="fill:none;fill-opacity:1;stroke:#000000;stroke-width:0.499999;stroke-linecap:round;stroke-opacity:1"
         d="M 36.3948 66.8068 C 36.3948 66.8068 36.0514 66.1682 35.7816 65.4998 C 35.5118 64.8314 35.262 64.155 35.262 64.155 C 35.262 64.155 34.5767 64.3141 33.5545 64.6643 C 33.0353 64.8422 32.4842 65.184 31.8614 65.3974 C 31.2886 65.5936 30.7007 65.8144 30.1279 66.0106 C 29.5051 66.224 28.8836 66.3602 28.3645 66.5381 C 27.3427 66.8881 26.5973 67.0495 26.5973 67.0495 C 26.5973 67.0495 26.7533 67.7502 26.9224 68.3783 C 27.0915 69.0064 27.2954 69.6252 27.2954 69.6252"
         id="path3"
         sodipodi:nodetypes="cccc" /><path
         style="fill:none;fill-opacity:1;stroke:#000000;stroke-width:0.499999;stroke-linecap:round;stroke-opacity:1"
         d="M 31.3083 77.1113 C 31.3083 77.1113 31.4213 77.9732 31.497 79.2073 C 31.5355 79.8343 31.4708 80.563 31.517 81.315 C 31.5594 82.0066 31.5948 82.7241 31.6372 83.4157 C 31.6833 84.1677 31.7756 84.8867 31.814 85.5135 C 31.8897 86.7472 31.9525 87.6118 31.9525 87.6118"
         id="path4" /><path
         style="fill:none;fill-opacity:1;stroke:#000000;stroke-width:0.499999;stroke-linecap:round;stroke-opacity:1"
         d="M 31.3083 76.9341 C 31.3083 76.9341 31.0492 77.621 30.649 78.6658 C 30.4556 79.1708 30.3124 79.7912 30.0688 80.4272 C 29.8583 80.9769 29.482 81.5034 29.2536 82.0997 C 29.0342 82.6726 28.8482 83.2703 28.6288 83.8432 C 28.4004 84.4395 28.2079 85.0364 27.9974 85.586 C 27.7539 86.2217 27.6196 86.8452 27.4263 87.35 C 27.026 88.3952 26.6701 89.0452 26.6701 89.0452"
         id="path5" /><path
         style="fill:none;fill-opacity:1;stroke:#000000;stroke-width:0.499999;stroke-linecap:round;stroke-opacity:1"
         d="M 31.4533 77.1435 C 31.4533 77.1435 32.2578 77.4918 33.2395 77.9294 C 33.8128 78.1849 34.4176 78.5357 34.991 78.7913 C 35.9729 79.2291 36.762 79.6127 36.762 79.6127 C 36.762 79.6127 37.3751 79.1431 38.1056 78.5698 C 38.4942 78.2648 38.9256 77.9046 39.3675 77.5578 C 39.8091 77.2112 40.2431 76.8549 40.6315 76.5501 C 41.3618 75.9769 41.8328 75.4608 41.8328 75.4608 L 42.0182 74.7599"
         id="path6" /><path
         style="fill:none;fill-opacity:1;stroke:#000000;stroke-width:0.499999;stroke-linecap:round;stroke-opacity:1"
         d="M 28.345 102.493 C 28.345 102.493 28.4653 101.722 28.735 100.54 C 28.8635 99.9773 29.1315 99.3454 29.2955 98.6269 C 29.435 98.0156 29.4221 97.324 29.5763 96.6485 C 29.7211 96.0139 30.0166 95.3941 30.1656 94.741 C 30.3146 94.0881 30.3651 93.4128 30.5099 92.7784 C 30.664 92.1029 30.7729 91.4392 30.9125 90.8279 C 31.0765 90.1089 31.3777 89.4842 31.5062 88.9212 C 31.7758 87.7398 31.8061 86.9489 31.8061 86.9489 C 31.8061 86.9489 32.1074 87.739 32.5194 88.9162 C 32.7156 89.4766 33.0193 90.1067 33.2698 90.8222 C 33.4828 91.431 33.5876 92.126 33.8231 92.7987 C 34.0443 93.4307 34.4371 94.0233 34.6648 94.6738 C 34.8923 95.3239 35.1169 95.9751 35.338 96.6069 C 35.5735 97.2795 35.7316 97.9559 35.9447 98.5646 C 36.1952 99.2806 36.4437 99.9304 36.64 100.491 C 37.0518 101.668 37.2994 102.429 37.2994 102.429"
         id="path7" /></g><text
       xml:space="preserve"
       style="font-size:4.66524px;font-family:'Humor Sans';-inkscape-font-specification:'Humor Sans';text-align:center;writing-mode:lr-tb;direction:ltr;text-anchor:middle;fill:#000000;fill-opacity:1;stroke:none;stroke-width:0.73468;stroke-linecap:round;stroke-opacity:1"
       x="64.509483"
       y="75.044037"
       id="text7"><tspan
         sodipodi:role="line"
         id="tspan7"
         style="fill:#000000;fill-opacity:1;stroke:none;stroke-width:0.73468"
         x="64.509483"
         y="75.044037">xkcdify</tspan></text></g></svg>
